
<svg xmlns="http://www.w3.org/2000/svg" width="100" height="100" viewBox="0 0 100 100" fill="none">
  <rect width="100" height="100" rx="10" fill="#3B82F6"/>
  <path d="M25 30H75C77.7614 30 80 32.2386 80 35V70C80 72.7614 77.7614 75 75 75H25C22.2386 75 20 72.7614 20 70V35C20 32.2386 22.2386 30 25 30Z" fill="white"/>
  <path d="M30 40H50C51.1046 40 52 40.8954 52 42V48C52 49.1046 51.1046 50 50 50H30C28.8954 50 28 49.1046 28 48V42C28 40.8954 28.8954 40 30 40Z" fill="#93C5FD"/>
  <path d="M30 55H40C41.1046 55 42 55.8954 42 57V63C42 64.1046 41.1046 65 40 65H30C28.8954 65 28 64.1046 28 63V57C28 55.8954 28.8954 55 30 55Z" fill="#93C5FD"/>
  <path d="M50 55H70C71.1046 55 72 55.8954 72 57V63C72 64.1046 71.1046 65 70 65H50C48.8954 65 48 64.1046 48 63V57C48 55.8954 48.8954 55 50 55Z" fill="#93C5FD"/>
  <path d="M60 40H70C71.1046 40 72 40.8954 72 42V48C72 49.1046 71.1046 50 70 50H60C58.8954 50 58 49.1046 58 48V42C58 40.8954 58.8954 40 60 40Z" fill="#93C5FD"/>
</svg>
